<svg width="65" height="28" viewBox="0 0 65 28" fill="none" xmlns="http://www.w3.org/2000/svg">
<path d="M4.96758 11.1432C2.49095 11.1432 0.944842 9.55411 0.944842 6.97726V0.978947H2.66274V6.92C2.66274 8.59495 3.56463 9.61137 4.98189 9.61137C6.38484 9.61137 7.27242 8.59495 7.27242 6.92V0.978947H8.99032V6.97726C8.99032 9.55411 7.44421 11.1432 4.96758 11.1432ZM15.1652 0.978947C17.284 0.978947 18.5724 2.18147 18.5724 4.05684C18.5724 6.00379 17.241 7.26358 15.065 7.26358H12.7172V11H11.0137V0.978947H15.1652ZM15.108 5.73179C16.2246 5.73179 16.8545 5.11621 16.8545 4.1141C16.8545 3.12632 16.2103 2.49642 15.065 2.49642H12.7172V5.73179H15.108ZM23.3232 11.1432C21.2045 11.1432 19.8158 10.0552 19.4293 8.23705L20.9182 7.77895C21.2761 9.06737 22.1207 9.68295 23.4234 9.68295C24.7262 9.68295 25.6137 9.13895 25.6137 8.29432C25.6137 5.77474 19.8731 7.87916 19.8731 3.82779C19.8731 2.00968 21.3333 0.792841 23.4234 0.792841C25.3274 0.792841 26.5586 1.80926 27.0024 3.34105L25.4849 3.77053C25.17 2.84 24.4399 2.25305 23.3232 2.25305C22.178 2.25305 21.4908 2.84 21.4908 3.64168C21.4908 6.07537 27.2744 3.99958 27.2744 8.05095C27.2744 9.99789 25.671 11.1432 23.3232 11.1432ZM33.32 11.1432C30.3423 11.1432 28.3524 9.02442 28.3524 5.98947C28.3524 2.95453 30.4712 0.792841 33.2771 0.792841C35.4101 0.792841 36.9848 1.90947 37.6004 3.89937L36.1116 4.40042C35.6535 3.0261 34.68 2.31032 33.2627 2.31032C31.4303 2.31032 30.0703 3.81347 30.0703 6.00379C30.0703 8.12253 31.3874 9.62568 33.3629 9.62568C34.8232 9.62568 35.8396 8.83832 36.2977 7.43537L37.7436 7.90779C37.1566 9.912 35.5246 11.1432 33.32 11.1432ZM46.0868 11L45.2851 8.86695H40.8615L40.0598 11H38.2704L42.1786 0.978947H43.9824L47.9049 11H46.0868ZM41.4055 7.44968H44.7697L43.0948 2.96884L41.4055 7.44968ZM50.9533 9.48253H55.9781V11H49.2497V0.978947H50.9533V9.48253ZM59.2016 9.48253H64.3696V11H57.498V0.978947H64.341V2.49642H59.2016V5.13053H63.8113V6.66232H59.2016V9.48253ZM2.77726 25.4825H7.94526V27H1.07368V16.9789H7.91663V18.4964H2.77726V21.1305H7.38695V22.6623H2.77726V25.4825ZM16.1157 16.9789H17.7763V27H15.7005L11.2483 19.0834V27H9.58766V16.9789H11.8209L16.1157 24.5949V16.9789ZM24.4286 27.1432C21.4509 27.1432 19.461 25.0244 19.461 21.9895C19.461 18.9545 21.5797 16.7928 24.3856 16.7928C26.5187 16.7928 28.0934 17.9095 28.709 19.8994L27.2201 20.4004C26.762 19.0261 25.7886 18.3103 24.3713 18.3103C22.5389 18.3103 21.1789 19.8135 21.1789 22.0038C21.1789 24.1225 22.4959 25.6257 24.4715 25.6257C25.9317 25.6257 26.9481 24.8383 27.4062 23.4354L28.8521 23.9078C28.2652 25.912 26.6332 27.1432 24.4286 27.1432ZM32.1218 25.4825H37.1467V27H30.4183V16.9789H32.1218V25.4825ZM45.6813 27L44.8797 24.8669H40.4561L39.6544 27H37.8649L41.7731 16.9789H43.5769L47.4995 27H45.6813ZM41.0001 23.4497H44.3643L42.6893 18.9688L41.0001 23.4497ZM54.5102 16.9789H56.3283L52.6205 27H50.7451L46.9085 16.9789H48.7838L51.69 25.0531L54.5102 16.9789ZM59.2995 25.4825H64.4675V27H57.5959V16.9789H64.4388V18.4964H59.2995V21.1305H63.9091V22.6623H59.2995V25.4825Z" fill="#0040BB"/>
</svg>
