<svg width="143" height="60" viewBox="0 0 143 60" fill="none" xmlns="http://www.w3.org/2000/svg">
<path d="M9.104 23.32C3.568 23.32 0.112 19.768 0.112 14.008V0.599998H3.952V13.88C3.952 17.624 5.968 19.896 9.136 19.896C12.272 19.896 14.256 17.624 14.256 13.88V0.599998H18.096V14.008C18.096 19.768 14.64 23.32 9.104 23.32ZM31.8988 0.599998C36.6348 0.599998 39.5148 3.288 39.5148 7.48C39.5148 11.832 36.5388 14.648 31.6748 14.648H26.4268V23H22.6188V0.599998H31.8988ZM31.7708 11.224C34.2668 11.224 35.6748 9.848 35.6748 7.608C35.6748 5.4 34.2348 3.992 31.6748 3.992H26.4268V11.224H31.7708ZM50.1343 23.32C45.3983 23.32 42.2943 20.888 41.4303 16.824L44.7583 15.8C45.5583 18.68 47.4463 20.056 50.3583 20.056C53.2703 20.056 55.2543 18.84 55.2543 16.952C55.2543 11.32 42.4223 16.024 42.4223 6.968C42.4223 2.904 45.6863 0.183998 50.3583 0.183998C54.6143 0.183998 57.3663 2.456 58.3583 5.88L54.9663 6.84C54.2623 4.76 52.6303 3.448 50.1343 3.448C47.5743 3.448 46.0383 4.76 46.0383 6.552C46.0383 11.992 58.9663 7.352 58.9663 16.408C58.9663 20.76 55.3823 23.32 50.1343 23.32ZM72.48 23.32C65.824 23.32 61.376 18.584 61.376 11.8C61.376 5.016 66.112 0.183998 72.384 0.183998C77.152 0.183998 80.672 2.68 82.048 7.128L78.72 8.248C77.696 5.176 75.52 3.576 72.352 3.576C68.256 3.576 65.216 6.936 65.216 11.832C65.216 16.568 68.16 19.928 72.576 19.928C75.84 19.928 78.112 18.168 79.136 15.032L82.368 16.088C81.056 20.568 77.408 23.32 72.48 23.32ZM101.017 23L99.2255 18.232H89.3375L87.5455 23H83.5455L92.2815 0.599998H96.3135L105.082 23H101.017ZM90.5535 15.064H98.0735L94.3295 5.048L90.5535 15.064ZM111.896 19.608H123.128V23H108.088V0.599998H111.896V19.608ZM130.333 19.608H141.885V23H126.525V0.599998H141.821V3.992H130.333V9.88H140.637V13.304H130.333V19.608ZM4.208 55.608H15.76V59H0.4V36.6H15.696V39.992H4.208V45.88H14.512V49.304H4.208V55.608ZM34.0233 36.6H37.7353V59H33.0953L23.1433 41.304V59H19.4313V36.6H24.4233L34.0233 53.624V36.6ZM52.605 59.32C45.949 59.32 41.501 54.584 41.501 47.8C41.501 41.016 46.237 36.184 52.509 36.184C57.277 36.184 60.797 38.68 62.173 43.128L58.845 44.248C57.821 41.176 55.645 39.576 52.477 39.576C48.381 39.576 45.341 42.936 45.341 47.832C45.341 52.568 48.285 55.928 52.701 55.928C55.965 55.928 58.237 54.168 59.261 51.032L62.493 52.088C61.181 56.568 57.533 59.32 52.605 59.32ZM69.8018 55.608H81.0338V59H65.9938V36.6H69.8018V55.608ZM100.111 59L98.3193 54.232H88.4313L86.6393 59H82.6393L91.3753 36.6H95.4073L104.175 59H100.111ZM89.6473 51.064H97.1673L93.4233 41.048L89.6473 51.064ZM119.846 36.6H123.91L115.622 59H111.43L102.854 36.6H107.046L113.542 54.648L119.846 36.6ZM130.552 55.608H142.104V59H126.744V36.6H142.04V39.992H130.552V45.88H140.856V49.304H130.552V55.608Z" fill="#0040BB"/>
</svg>
